<?xml version="1.0" standalone="no"?>
<!DOCTYPE svg PUBLIC "-//W3C//DTD SVG 1.1//EN" "http://www.w3.org/Graphics/SVG/1.1/DTD/svg11.dtd" >
<svg xmlns="http://www.w3.org/2000/svg">
<metadata>
Created by FontForge 20120731 at Thu Mar 10 15:02:57 2016
 By Ads
</metadata>
<defs>
<font id="iconfont" horiz-adv-x="1024" >
  <font-face 
    font-family="iconfont"
    font-weight="500"
    font-stretch="normal"
    units-per-em="1024"
    panose-1="2 0 6 3 0 0 0 0 0 0"
    ascent="896"
    descent="-128"
    x-height="792"
    bbox="0 -128 1024 896.376"
    underline-thickness="50"
    underline-position="-100"
    unicode-range="U+0078-D627"
  />
<missing-glyph horiz-adv-x="374" 
d="M34 0v682h272v-682h-272zM68 34h204v614h-204v-614z" />
    <glyph glyph-name=".notdef" horiz-adv-x="374" 
d="M34 0v682h272v-682h-272zM68 34h204v614h-204v-614z" />
    <glyph glyph-name=".null" horiz-adv-x="0" 
 />
    <glyph glyph-name="nonmarkingreturn" horiz-adv-x="341" 
 />
    <glyph glyph-name="x" unicode="x" horiz-adv-x="1001" 
d="M281 543q-27 -1 -53 -1h-83q-18 0 -36.5 -6t-32.5 -18.5t-23 -32t-9 -45.5v-76h912v41q0 16 -0.5 30t-0.5 18q0 13 -5 29t-17 29.5t-31.5 22.5t-49.5 9h-133v-97h-438v97zM955 310v-52q0 -23 0.5 -52t0.5 -58t-10.5 -47.5t-26 -30t-33 -16t-31.5 -4.5q-14 -1 -29.5 -0.5
t-29.5 0.5h-32l-45 128h-439l-44 -128h-29h-34q-20 0 -45 1q-25 0 -41 9.5t-25.5 23t-13.5 29.5t-4 30v167h911zM163 247q-12 0 -21 -8.5t-9 -21.5t9 -21.5t21 -8.5q13 0 22 8.5t9 21.5t-9 21.5t-22 8.5zM316 123q-8 -26 -14 -48q-5 -19 -10.5 -37t-7.5 -25t-3 -15t1 -14.5
t9.5 -10.5t21.5 -4h37h67h81h80h64h36q23 0 34 12t2 38q-5 13 -9.5 30.5t-9.5 34.5q-5 19 -11 39h-368zM336 498v228q0 11 2.5 23t10 21.5t20.5 15.5t34 6h188q31 0 51.5 -14.5t20.5 -52.5v-227h-327z" />
    <glyph glyph-name="uniD600" unicode="&#xd600;" 
d="M711 605q19 0 32.5 13t13.5 31v200q0 6 -1.5 10.5t-3.5 9t-5.5 8.5t-7.5 7t-8.5 5t-9.5 3t-10 1q-18 0 -31 -12.5t-13 -31.5v-200q0 -5 1.5 -10t3.5 -9t5 -8t7 -7t8 -5t9 -3.5t10 -1.5zM623 783h-222v-67h222v67zM884 783h-83v-67h86q19 0 33 -13.5t14 -32.5v-154h-844
v154q0 19 14 32.5t33 13.5h87v67h-83q-32 0 -58.5 -16t-42.5 -43t-16 -58v-677q0 -48 33.5 -82.5t81.5 -34.5h745q48 0 82.5 34.5t34.5 82.5v677q0 16 -4.5 31t-12 27.5t-18 23.5t-23.5 18.5t-28 12t-31 4.5zM934 -14q0 -19 -14 -33t-33 -14h-750q-19 0 -33 14t-14 33v464
h844v-464zM267 250q18 0 33.5 9t24.5 24.5t9 33.5t-9 33.5t-24.5 24.5t-33.5 9q-11 0 -21 -3.5t-18.5 -10t-14.5 -14.5t-9.5 -18t-3.5 -21q0 -28 19.5 -47.5t47.5 -19.5zM512 250q27 0 46.5 19.5t19.5 47.5q0 13 -5 25.5t-14 21.5t-21.5 14.5t-25.5 5.5q-19 0 -34 -9
t-24 -24.5t-9 -33.5q0 -7 1.5 -13.5t4 -12.5t6 -11.5t8 -10t10 -8t11 -6t12.5 -4t14 -1.5zM266 5q28 0 47.5 19.5t19.5 47.5t-19.5 47.5t-47.5 19.5t-47.5 -19.5t-19.5 -47.5t19.5 -47.5t47.5 -19.5zM512 5q27 0 46.5 19.5t19.5 47.5t-19.5 47.5t-46.5 19.5q-19 0 -34 -9
t-24 -24.5t-9 -33.5q0 -28 19.5 -47.5t47.5 -19.5zM756 250q27 0 46.5 19.5t19.5 47t-19.5 47.5t-46.5 20q-11 0 -21.5 -3.5t-18.5 -10t-14 -14.5t-9.5 -18t-3.5 -21q0 -18 9 -33.5t24.5 -24.5t33.5 -9zM312 605q18 0 31.5 13t13.5 31v200q0 19 -13.5 31.5t-32 12.5
t-31 -12.5t-12.5 -31.5v-200q0 -4 1 -8.5t2.5 -8.5t4 -7.5t5.5 -6.5t6.5 -5.5t7 -4t8 -2.5t9.5 -1z" />
    <glyph glyph-name="uniD601" unicode="&#xd601;" 
d="M704 115q-30 50 -81 79.5t-111 29.5q-15 0 -30 -2t-29 -6t-27.5 -9.5t-25.5 -12.5t-23.5 -15.5t-21.5 -18.5t-19 -21.5t-16 -23.5l-82 50q42 71 115 113t159 42t159 -42t115 -113zM320 640q26 0 45 -19t19 -45t-19 -45t-45 -19t-45 19t-19 45t19 45t45 19zM704 640
q26 0 45 -19t19 -45t-19 -45t-45 -19t-45 19t-19 45t19 45t45 19zM512 896q-139 0 -257 -68.5t-186.5 -186.5t-68.5 -257t68.5 -257t186.5 -186.5t257 -68.5t257 68.5t186.5 186.5t68.5 257t-68.5 257t-186.5 186.5t-257 68.5z" />
    <glyph glyph-name="uniD602" unicode="&#xd602;" 
d="M507 880q-101 0 -193 -39t-158 -105.5t-105.5 -158t-39.5 -192.5q0 -81 25 -156.5t71 -136.5t107 -107t136.5 -71t156.5 -25q67 0 131.5 18t118.5 50t100 77.5t78 100t49.5 118.5t17.5 132q0 45 -7.5 89t-23 84t-37 77t-49 69t-59.5 59.5t-69 49t-77 37t-84 23t-89 7.5z
M766 486q-135 -136 -260 -260q-21 -21 -35 -21t-34 20q-19 19 -45 44.5t-51 51t-45 45.5q-31 30 -8 57q8 9 17.5 11.5t20 -2t22.5 -16.5l122 -122q3 3 8.5 8t9.5 9t8 7q159 159 219 220q31 31 58 8q14 -12 12 -27.5t-19 -32.5z" />
    <glyph glyph-name="uniD603" unicode="&#xd603;" 
d="M511 846q111 0 189 -78q37 -37 57.5 -86t20.5 -103q0 -111 -78 -189q-9 -9 -19 -17t-21 -15q85 -32 149 -97q59 -58 91.5 -135t32.5 -162q0 -15 -10.5 -26t-25.5 -11q-5 0 -10 1.5t-9 4t-7 5.5t-5.5 7t-4 9t-1.5 10q0 47 -12.5 92t-35 83.5t-54.5 70.5q-48 48 -112 75
t-135 27t-135 -27t-112 -75q-32 -32 -54.5 -70.5t-35 -83.5t-12.5 -92q0 -15 -11 -26t-26 -11t-25.5 11t-10.5 26q0 85 32.5 162t91.5 135q64 65 149 97q-6 3 -11 7l-10 8q-5 4 -9.5 8.5t-9.5 8.5q-78 79 -78 189.5t78 188.5q37 37 86 57.5t103 20.5v0zM648 717
q-57 56 -137 56t-137 -56.5t-57 -137t57 -137.5q56 -57 137 -57t137 57q57 57 57 137.5t-57 137.5z" />
    <glyph glyph-name="uniD604" unicode="&#xd604;" 
d="M511 896q-83 0 -159 -32t-131 -85.5t-87.5 -127.5t-32.5 -155q0 -62 42.5 -149t102.5 -167t120.5 -151t102 -114t42.5 -43l85 90q264 289 314 466q10 37 10 68q0 108 -54.5 200.5t-149 146t-205.5 53.5zM511 256q-102 0 -174 70.5t-72 169.5t72 169.5t174 70.5
t173.5 -70.5t71.5 -169.5t-71.5 -169.5t-173.5 -70.5z" />
    <glyph glyph-name="uniD605" unicode="&#xd605;" 
d="M55 703h95l44 -777q1 -12 9.5 -20.5t20.5 -8.5h579q12 0 20.5 8.5t9.5 20.5l44 777h94q13 0 22 9t9 21.5t-9 21.5t-22 9h-239l-15 80q0 6 -2.5 12t-6.5 10t-9.5 6.5t-11.5 2.5h-347q-9 0 -16 -4.5t-11 -11.5t-4 -15l-15 -80h-239q-13 0 -22 -9t-9 -21.5t9 -21.5t22 -9z
M370 814h286l15 -50h-316zM815 703l-41 -745h-521l-42 745h604zM362 16h2q12 0 20.5 9.5t7.5 22.5l-32 566q0 12 -10 20.5t-22 8.5q-13 -1 -21 -10.5t-8 -22.5l32 -566q1 -8 5 -14.5t11 -10t15 -3.5zM662 16h1q12 0 21 8t10 20l32 566q0 7 -2 12.5t-6 10t-9.5 7t-11.5 3.5
q-12 0 -21.5 -8.5t-10.5 -20.5l-32 -566q-1 -13 7.5 -22.5t21.5 -9.5zM513 16q13 0 22 8.5t9 21.5v566q0 9 -4 16t-11.5 11t-15.5 4t-15 -4t-11 -11t-4 -16v-566q0 -13 8.5 -21.5t21.5 -8.5z" />
    <glyph glyph-name="uniD606" unicode="&#xd606;" 
d="M957 476l-4 8q-2 4 -4.5 7t-5.5 5.5t-6.5 4.5t-7.5 3.5t-8 2.5l-255 44l-114 230q-4 7 -10 13t-14 9t-16 3q-3 0 -6.5 -0.5t-6.5 -1.5t-5.5 -2t-5.5 -3l-4 -4q-3 -2 -5 -4t-4 -4.5t-3 -5.5l-114 -230l-255 -46q-28 -4 -36.5 -30.5t11.5 -45.5l184 -171l-48 -247
q-4 -28 18 -44q13 -9 26.5 -8.5t20.5 4.5l233 114l231 -114q3 -1 8 -2.5t12 -2t14.5 1.5t12.5 7q23 16 18 44l-47 247l185 172q19 20 11 46z" />
    <glyph glyph-name="uniD607" unicode="&#xd607;" 
d="M512 860q-96 0 -183.5 -37.5t-151 -101t-101 -151t-37.5 -183.5t37.5 -183.5t101 -151t151 -101t183.5 -37.5t183.5 37.5t151 101t101 151t37.5 183.5q0 77 -24 149t-68 130t-102 102t-130 68t-149 24zM512 -22q-111 0 -205 55t-149 149t-55 205t55 205t149 149t205 55
q56 0 109 -15t97.5 -41t82.5 -64t64 -83t41 -98t15 -108q0 -111 -55 -205t-149 -149t-205 -55zM694 368l-170 46v287h-67v-337h3l201 -54z" />
    <glyph glyph-name="uniD608" unicode="&#xd608;" 
d="M512 834q-91 0 -174.5 -36t-143.5 -96t-96 -143.5t-36 -174.5t36 -174.5t96 -143.5t143.5 -96t174.5 -36t174.5 36t143.5 96t96 143.5t36 174.5t-36 174.5t-96 143.5t-143.5 96t-174.5 36zM512 9q-51 0 -99.5 13.5t-89.5 38t-75.5 59t-59 75.5t-38 89.5t-13.5 99.5
q0 61 19 118t53.5 103.5t81 81t103.5 53.5t118 19q102 0 188 -50.5t136.5 -136.5t50.5 -188t-50.5 -188t-136.5 -136.5t-188 -50.5zM428 318l93 -224l207 524l-525 -207zM454 347l-155 64l362 143z" />
    <glyph glyph-name="uniD609" unicode="&#xd609;" 
d="M923 -128h-822q-42 0 -71.5 29.5t-29.5 71.5v822q0 42 29.5 71.5t71.5 29.5h822q42 0 71.5 -29.5t29.5 -71.5v-822q0 -42 -29.5 -71.5t-71.5 -29.5zM101 864q-19 0 -35 -9.5t-25 -25.5t-9 -34v-822q0 -28 20 -48.5t49 -20.5h822q29 0 49 20.5t20 48.5v822q0 28 -20 48.5
t-49 20.5h-822zM842 384q0 -8 5 -13t13 -5t13 5t5 13t-5 13t-13 5t-13 -5t-5 -13zM146 384q0 -8 5 -13t13 -5t13 5t5 13t-5 13t-13 5t-13 -5t-5 -13zM494 34q0 -7 5 -12.5t13 -5.5t13 5.5t5 12.5q0 5 -2.5 9.5t-6.5 7t-9 2.5t-9 -2.5t-6.5 -7t-2.5 -9.5zM713 402h-130
q-4 13 -11.5 24t-18 18.5t-23.5 10.5v279q0 2 -0.5 4t-1 3.5t-2 3.5t-3 3t-3.5 2t-4 1.5t-4 0.5q-8 0 -13 -5.5t-5 -12.5v-279q-6 -2 -11.5 -4t-10.5 -5.5t-9.5 -7.5t-8 -8.5t-6.5 -10t-5 -11t-3 -12t-1 -12.5q0 -30 21.5 -52t51.5 -22q25 0 44.5 16t26.5 40h130
q4 0 7.5 1.5t6 3.5t4 5.5t1.5 7.5q0 8 -5.5 13t-13.5 5zM512 347q-15 0 -26 11t-11 26t11 26t26 11t26 -11t11 -26q0 -7 -3 -14t-8 -12t-12 -8t-14 -3z" />
    <glyph glyph-name="uniD610" unicode="&#xd610;" 
d="M772 349q-98 0 -167 -69t-69 -166.5t69 -166.5t167 -69t167 69t69 166.5t-69 166.5t-167 69zM873 43q4 -4 5.5 -9.5t0 -11.5t-5.5 -10q-6 -6 -15 -6t-15 6l-71 71l-70 -71q-5 -4 -10.5 -5.5t-11 0t-9.5 5.5q-6 7 -6 15.5t6 15.5l71 70l-71 71q-15 15 0 31q6 6 15 6t16 -6
l70 -71l71 71q6 6 15 6t15 -6q4 -5 5.5 -10.5t0 -11t-5.5 -9.5l-70 -71zM873 43zM343 582l-54 31l-73 -133h-76l203 369l-55 28l-254 -467h144l-145 -262h280v62h-173zM50 58h263v-63h-263v63zM887 708h-349l79 143l-56 30l-229 -418l56 -30l116 213h321v-257q32 -5 62 -18
v337zM354 58v-63h169q-14 30 -20 63h-149zM548 475l-51 -37l88 -121q12 11 24.5 20.5t26.5 17.5z" />
    <glyph glyph-name="uniD611" unicode="&#xd611;" 
d="M512 864q-98 0 -186.5 -38t-153 -102.5t-102.5 -153t-38 -186.5t38 -186.5t102.5 -153t153 -102.5t186.5 -38t186.5 38t153 102.5t102.5 153t38 186.5t-38 186.5t-102.5 153t-153 102.5t-186.5 38zM716 226l-46 -46l-158 159l-158 -159l-46 46l159 158l-159 158l46 46
l158 -159l158 159l46 -46l-159 -158z" />
    <glyph glyph-name="uniD612" unicode="&#xd612;" 
d="M864 731q-69 69 -157.5 105.5t-185.5 36.5t-185.5 -36.5t-157.5 -105.5q-34 -34 -61 -73.5t-44.5 -83t-27 -90.5t-9.5 -95q0 -97 36.5 -185.5t105.5 -157.5q46 -46 101 -77.5t116 -48t126 -16.5t126 16.5t116 48t101 77.5q93 93 126 218t0 249.5t-126 217.5v0zM820 91
q-60 -60 -137 -92t-161.5 -32t-162 32t-137 91.5t-91.5 136.5t-32 161.5t32 161.5t92 137q39 40 87 67.5t101.5 41.5t109.5 14q85 0 162 -31.5t137 -91.5q81 -81 109.5 -189.5t0 -217t-109.5 -189.5v0zM685 546q-24 0 -40.5 -16.5t-16.5 -40t16.5 -40t40.5 -16.5t40.5 16.5
t16.5 40t-16.5 40t-40.5 16.5v0zM382 433q16 0 29 7.5t20.5 20.5t7.5 28.5t-7.5 28.5t-20.5 20.5t-29 7.5q-23 0 -39.5 -16.5t-16.5 -40.5q0 -15 7.5 -28t20.5 -20.5t28 -7.5v0zM521 307q-14 0 -28.5 -2t-28.5 -5.5t-27 -9t-25 -12.5t-23.5 -15t-21.5 -18t-19.5 -20.5
t-16.5 -22.5q-10 -15 -1.5 -30.5t25.5 -15.5h2q15 0 24 12q23 36 60 56.5t80 20.5q29 0 56 -9.5t48.5 -26.5t37.5 -41q4 -6 10 -9t13 -3h2q11 0 19 7.5t9.5 17.5t-4.5 21q-16 24 -36.5 43t-44.5 33t-52 21.5t-58 7.5v0zM521 307z" />
    <glyph glyph-name="uniD613" unicode="&#xd613;" 
d="M972 247h-956l441 -332l-51 204h567zM66 508h956l-453 333l51 -205h-554v-128zM66 508z" />
    <glyph glyph-name="uniD614" unicode="&#xd614;" 
d="M138 792q5 44 24 66t51 24q36 1 55.5 -20t28.5 -70h419q4 8 13.5 25.5t16.5 29t15 20.5q7 7 21 10.5t29 3.5q31 0 48.5 -22t25.5 -69h11h14h12q10 0 18 -1t15.5 -3.5t13.5 -5.5t11.5 -7.5t9.5 -9.5t7.5 -11.5t5.5 -13.5t3 -15t1 -18q1 -42 1 -376v-347
q-1 -50 -22.5 -71.5t-71.5 -21.5h-803q-53 0 -75 21.5t-22 73.5v710q0 52 22 74t75 22q1 0 27 2v0zM75 516v-33v-495v-16q0 -5 1.5 -10.5t3 -7t7 -3t10.5 -1.5h16h795q29 0 34.5 5.5t5.5 34.5q0 439 1 493q0 20 -7.5 27t-28.5 7q-163 -1 -803 -1h-35zM756 737h1v-71
q2 -22 15.5 -34.5t32.5 -12.5q13 0 24 6.5t17 17.5t7 26q1 63 0 134q-1 14 -7 25.5t-16.5 18t-23.5 6.5q-20 1 -34 -12.5t-15 -35.5q-1 -8 -1 -17v-17v-17v-17v0zM168 739h1v-74q1 -13 8 -24t17.5 -16.5t23.5 -5.5q20 0 33 13.5t14 34.5q2 69 0 139q-1 20 -14.5 33.5
t-33.5 13.5q-19 0 -33 -13.5t-15 -35.5q-1 -4 -1 -65v0zM192 49v67h139v-67h-139zM443 49v67h138v-67h-138zM693 49v67h134v-67h-134zM332 401v-65h-139v65h139zM443 336v65h138v-65h-138zM193 194v64h138v-64h-138zM444 258h137v-64h-137v64zM827 336h-134v65h134v-65z
M828 257v-63h-135v63h135zM828 257z" />
    <glyph glyph-name="uniD615" unicode="&#xd615;" 
d="M307 319q94 13 158 85.5t64 169.5q0 107 -75.5 182.5t-182.5 75.5q-70 0 -129.5 -34.5t-94 -94t-34.5 -129.5q0 -97 64 -169.5t158 -85.5v-124h-167v-71h167v-167h72v167h166v71h-166v124zM85 574q0 77 54.5 131.5t131.5 54.5q38 0 72.5 -14.5t59.5 -39.5t39.5 -59.5
t14.5 -72.5q0 -51 -25 -93.5t-67.5 -67.5t-93.5 -25q-77 0 -131.5 54.5t-54.5 131.5zM85 574zM504 181q0 -106 75.5 -181.5t182.5 -75.5t182 75.5t75 182.5q0 97 -63.5 169t-158.5 86v261l68 -68l51 50l-155 154l-154 -154l51 -50l68 68v-261q-95 -14 -158.5 -86.5
t-63.5 -169.5v0zM948 182q0 -78 -54.5 -132.5t-131.5 -54.5t-132 54.5t-55 132t54.5 132t132 54.5t132 -54.5t54.5 -131.5v0zM948 182z" />
    <glyph glyph-name="uniD616" unicode="&#xd616;" 
d="M370 692h26v-15q0 -1 0.5 -2.5t0.5 -2.5t1 -3q2 -12 14 -12q7 0 12 6q3 3 5 6.5t2 7.5v15h20q7 0 12.5 5t5.5 12q0 4 -1.5 7t-4 5.5t-5.5 4t-7 1.5h-20v21q0 8 -5 13t-12.5 5t-12.5 -5t-5 -13v-21h-26q-5 0 -9 -2.5t-6.5 -6.5t-2.5 -9q0 -7 5.5 -12t12.5 -5zM769 62l-1 4
q-25 59 -65 106t-92 78.5t-111 45.5q36 25 63 68.5t42 100.5t15 121q0 129 -57 221l-5 8l-8 2q-67 25 -141.5 25t-142.5 -25l-8 -2l-4 -8q-28 -44 -42.5 -101.5t-14.5 -119.5q0 -98 34 -177.5t91 -116.5q-83 -23 -149 -82.5t-101 -143.5l-1 -4q-15 -62 13 -100
q21 -30 64 -32q49 -4 272 -7h1q222 3 271 7q42 2 64 32q28 38 13 100zM275 785q133 45 266 0q46 -79 51 -191q-185 36 -367 0q5 111 50 191zM227 570q36 8 79.5 13.5t125.5 4t158 -17.5q-8 -113 -60.5 -192.5t-121.5 -79.5q-73 0 -127 90q-47 77 -54 182zM738 -17
q-3 -3 -6 -5.5t-6.5 -4t-8 -3t-10.5 -1.5q-50 -3 -287 -7l1 -26l-2 26q-78 1 -136.5 2.5t-96 2.5t-54.5 2q-21 2 -30 14q-15 21 -6 62q42 101 129 161.5t191 60.5h4h2h1q41 0 81 -10t75.5 -29.5t66.5 -46t56 -61.5t41 -75q10 -41 -5 -62zM952 71q-11 34 -28.5 64t-34 48.5
t-41 37t-38.5 26.5t-37 20q-18 10 -25 14q-5 3 -10.5 6t-9.5 4.5t-10 4.5q-4 2 -5.5 3t-5 2.5t-5.5 2.5q36 53 60.5 110.5t34 98t13.5 80t3.5 53.5t-1.5 22q-1 34 -17 61t-40 42.5t-46.5 23.5t-43.5 10l-16 1l-3 -32l16 -1q6 -1 14 -2.5t27.5 -8.5t34.5 -17.5t28 -31.5
t14 -47q3 -37 -5 -91q-39 16 -100 19l-1 -33q24 -1 52 -6t43 -12q-25 -122 -99 -229l-2 -3q-2 -4 -2 -8t1 -7t2.5 -6t5.5 -6t7 -4l7 -5q5 -3 7.5 -4t7.5 -4q7 -3 9.5 -4.5t8 -4t10.5 -5.5q8 -4 25 -14q29 -15 45.5 -26t42.5 -32t45 -50.5t31 -67.5q7 -45 -3 -57q-3 -4 -9 -4
q-33 -2 -50 -2v-33q4 1 9.5 1t19 0.5t23.5 1.5q21 1 32 16q19 23 9 85z" />
    <glyph glyph-name="uniD617" unicode="&#xd617;" 
d="M131 416q-41 43 -55.5 95t0 104t55.5 95q112 117 255 -33l95 -98l96 98q44 46 85 67.5t85.5 14.5t84.5 -49q38 -40 53 -88t5 -97t-43 -91h79q43 72 35.5 161t-65.5 148q-47 47 -95.5 68t-93.5 17t-85.5 -25.5t-76.5 -59.5l-64 -66l-63 66q-37 38 -77 59.5t-85 26
t-94 -16.5t-95 -69q-69 -73 -66.5 -179t72.5 -180l408 -427l29 30v98l-29 -29zM131 416zM1022 276l-60 83l-299 -220l-110 148l-82 -61l171 -230l82 61z" />
    <glyph glyph-name="uniD618" unicode="&#xd618;" 
d="M893 794h-751q-60 0 -93 -32.5t-33 -92.5v-564q0 -60 33 -92.5t93 -32.5h751q60 0 92.5 32t32.5 93v564q0 60 -32.5 92.5t-92.5 32.5zM956 105q0 -15 -4.5 -26.5t-12.5 -19.5t-19.5 -12t-26.5 -4h-751q-30 0 -46.5 16t-16.5 46v564q0 30 16.5 46t46.5 16h751q9 0 16.5 -1
t13.5 -4t11.5 -7t9.5 -9t6.5 -11.5t4 -14t1.5 -15.5v-564zM393 391q21 12 34 37t13 55q0 41 -24 70.5t-57 29.5q-14 0 -26 -5t-22 -14.5t-17.5 -21.5t-12 -27.5t-4.5 -31.5q0 -21 6.5 -39.5t17.5 -32t26 -21.5q-51 -8 -84 -34t-33 -59q0 -11 4 -21.5t11.5 -20t18 -18t24 -15
t28.5 -11t32.5 -7t35.5 -2.5q63 0 108 28t45 67q0 23 -16 43t-44.5 33.5t-63.5 17.5v0zM696 276h-71q-15 0 -25.5 -11t-10.5 -26t10.5 -26t25.5 -11h71q5 0 9.5 1.5t8.5 3.5t7.5 5.5t6 7.5t3.5 9t1 10q0 10 -4.5 18.5t-13 13.5t-18.5 5zM768 572h-143q-10 0 -18 -5
t-13 -13.5t-5 -18.5t5 -18.5t13 -13.5t18 -5h143q15 0 25.5 11t10.5 26q0 10 -5 18.5t-13 13.5t-18 5zM696 424h-71q-8 0 -14.5 -3t-11 -8t-7.5 -11.5t-3 -14.5q0 -10 5 -18.5t13 -13.5t18 -5h71q15 0 25.5 11t10.5 26t-10.5 26t-25.5 11zM696 424z" />
    <glyph glyph-name="uniD619" unicode="&#xd619;" 
d="M923 -71h-40v381q0 5 -2 9.5t-6.5 6.5t-9.5 2h-38q-8 0 -13 -5t-5 -12.5t5 -13t13 -5.5h20v-363h-54v660q0 16 -12 28t-28 12h-466q-17 0 -28.5 -12t-11.5 -28v-660h-54v360h20q2 0 4 0.5t4 1.5t3.5 2t2.5 3t2 3.5t1.5 3.5t0.5 4.5t-0.5 4.5t-1.5 4l-2 2q-1 2 -2.5 3.5
t-3.5 2.5t-4 1.5t-4 0.5h-38q-8 0 -13.5 -5.5t-5.5 -13.5v-378h-43q-5 0 -9.5 -2.5t-7 -6.5t-2.5 -9t2.5 -9t7 -6.5t9.5 -2.5h509q48 1 69 -17q2 -2 5 -3t7 -1t7.5 1.5t6.5 5.5q4 5 3.5 12.5t-6.5 12.5q-31 27 -93 25h-338v660q0 1 1.5 2.5t2.5 1.5h466q4 0 4 -4v-678
q0 -5 2.5 -9t6.5 -6.5t9 -2.5h148q8 0 13 5t5 12.5t-5 13t-13 5.5zM688 332h-354q-3 0 -6 -1t-5 -2.5t-4 -4t-3 -5t-1 -5.5q0 -5 2.5 -9t7 -6.5t9.5 -2.5h354q3 0 6.5 1.5t6 3.5t4 5.5t1.5 7.5q0 7 -5.5 12.5t-12.5 5.5zM688 429h-354q-8 0 -13.5 -5.5t-5.5 -12.5
q0 -5 2.5 -9.5t7 -7t9.5 -2.5h354q7 0 12.5 5.5t5.5 13t-5.5 13t-12.5 5.5zM688 526h-354q-5 0 -9.5 -2.5t-7 -7t-2.5 -9.5q0 -7 5.5 -12.5t13.5 -5.5h354q2 0 4 0.5t3.5 1.5t3.5 2.5t3 2.5l2 4q1 1 1.5 3t0.5 4q0 3 -0.5 5.5t-2 4.5t-3 3.5t-3.5 2.5t-4.5 2t-4.5 1z
M428 746h83v-82q0 -5 2.5 -9.5t6.5 -6.5t9 -2q7 0 12.5 5t5.5 13v82h82q4 0 7.5 1.5t6 4t3.5 5.5t1 7q0 8 -5 13t-13 5h-82v83q0 2 -1 5t-2.5 5.5t-4 4t-5 2.5t-5.5 1q-5 0 -9 -2.5t-6.5 -7t-2.5 -8.5v-83h-83q-7 0 -12.5 -5t-5.5 -13q0 -5 2.5 -9t7 -6.5t8.5 -2.5z" />
    <glyph glyph-name="uniD620" unicode="&#xd620;" 
d="M509 274q-89 0 -151.5 62.5t-62.5 151.5q0 58 28.5 107t78 77.5t107.5 28.5t107 -28.5t78 -77.5t29 -107q0 -89 -63 -151.5t-151 -62.5v0zM509 630q-59 0 -101 -41.5t-42 -100.5t42 -101t101 -42t100.5 42t41.5 101t-41.5 100.5t-100.5 41.5v0zM509 -118q-14 0 -25 10
q-7 7 -9.5 16t-0.5 18t9 16q33 35 73 81.5t90 111.5t89.5 125.5t66.5 122.5t27 105t-11.5 84.5t-32 77t-50 65t-65 50t-77 32t-84.5 11.5q-65 0 -124.5 -25.5t-102.5 -68t-68.5 -102t-25.5 -124.5q0 -63 59 -169t169 -240q9 -12 7.5 -26.5t-13 -24t-26 -8t-24.5 13.5
q-60 74 -105.5 139.5t-76 122.5t-46 105t-15.5 87q0 79 31 151.5t83.5 125t125 84t152.5 31.5q106 0 196.5 -52.5t143 -143t52.5 -196.5q0 -59 -38 -142t-85.5 -152.5t-109 -145.5t-88.5 -106t-45 -49q-2 -2 -4.5 -4t-5 -3t-5.5 -2t-5.5 -1.5t-5.5 -0.5v0zM509 -118z" />
    <glyph glyph-name="uniD621" unicode="&#xd621;" 
d="M168 738q117 117 282 141q49 7 98 4t96 -15t91.5 -33t83.5 -51q80 -60 130.5 -144.5t64.5 -183.5q15 -101 -11 -198t-83 -172.5t-142.5 -128t-186.5 -66.5q-85 -12 -170 5t-159 62q-13 8 -16.5 22t4.5 27t22 16.5t27 -4.5q130 -79 282 -58q115 17 204.5 87.5t132 176.5
t26.5 220q-12 85 -55.5 158t-112 124t-150.5 72t-166 9q-69 -10 -130.5 -40.5t-108 -77.5t-78.5 -104.5t-44 -125t-2 -136.5q13 -92 63 -170q8 -12 5 -26.5t-15.5 -22.5t-27 -5t-22.5 16q-58 90 -73 198q-15 99 9.5 194.5t84.5 175.5q22 29 47 54v0zM168 738zM574 390
l154 152q11 11 11 25.5t-10.5 25t-25 11t-25.5 -10.5l-154 -152l-152 152q-11 10 -25.5 10.5t-24.5 -10.5q-7 -7 -9.5 -16t0 -18t8.5 -16l152 -153l-153 -151q-10 -10 -10 -25t10 -25q5 -5 11.5 -8t13.5 -3q15 0 25 10l153 152l155 -155q10 -10 25 -10q5 0 9.5 1t8.5 3.5
t7 5.5q11 10 11 25t-11 25zM574 390z" />
    <glyph glyph-name="uniD622" unicode="&#xd622;" 
d="M704 593q5 0 10.5 1.5t10.5 4.5t9 7t6.5 8.5t4 9.5t1.5 11v190q0 11 -5.5 20.5t-15.5 15t-21.5 5.5t-21 -5.5t-15 -15t-5.5 -20.5v-190q0 -17 12 -29.5t30 -12.5zM620 761h-211v-63h211v63zM867 761h-78v-62h81q12 0 22 -6t16 -16.5t6 -22.5v-145h-798v145q0 18 13 31.5
t31 13.5h82v62h-79q-45 0 -77.5 -32.5t-32.5 -77.5v-641q0 -46 31.5 -78.5t77.5 -32.5h705q46 0 78 32.5t32 78.5v641q0 45 -32 77.5t-78 32.5zM914 7q0 -18 -13 -31.5t-31 -13.5h-710q-18 0 -31 13.5t-13 31.5v439h798v-439zM283 257q26 0 44.5 18.5t18.5 44.5q0 10 -3 20
t-9 17.5t-14 13.5t-17.5 9t-19.5 3q-17 0 -31.5 -8t-23 -23t-8.5 -32q0 -26 18.5 -44.5t44.5 -18.5zM514 257q27 0 45.5 18.5t18.5 44.5t-18.5 44.5t-45 18.5t-45 -18.5t-18.5 -44.5t18.5 -44.5t44.5 -18.5zM282 25q26 0 44.5 18.5t18.5 45.5q0 12 -5 24t-13.5 20.5
t-20 13.5t-24.5 5q-9 0 -17 -2.5t-15 -6.5t-13 -9.5t-10 -12.5t-6 -15.5t-2 -16.5q0 -27 18.5 -45.5t44.5 -18.5zM514 25q27 0 45.5 18.5t18.5 45t-18.5 45t-45.5 18.5q-17 0 -31.5 -8.5t-23 -23t-8.5 -32t8.5 -32t23 -23t31.5 -8.5zM746 257q26 0 44.5 18.5t18.5 44.5
q0 5 -1 10t-2.5 10t-4 9.5t-5 8t-6 7t-7.5 6.5t-8.5 5.5t-9 4t-9.5 2t-10 0.5q-11 0 -20.5 -3t-17.5 -9t-13.5 -13.5t-9 -17.5t-3.5 -20q0 -17 8.5 -31.5t23 -23t32.5 -8.5zM325 593q18 0 30.5 12.5t12.5 29.5v190q0 4 -1 9t-3.5 9t-5.5 7.5t-6.5 6.5t-8 5t-9 3t-9.5 1
q-17 0 -29.5 -12t-12.5 -29v-190q0 -17 12.5 -29.5t29.5 -12.5zM325 593z" />
    <glyph glyph-name="uniD623" unicode="&#xd623;" 
d="M947 -56q0 1 -1 4v3q-15 118 -86 214q-72 97 -177 142q41 28 71.5 68.5t46.5 89t16 101.5q0 130 -90 220q-15 16 -31 28.5t-33 23t-35.5 18t-37.5 12.5t-39.5 8t-41.5 3q-126 0 -217 -93q-90 -90 -90 -220q0 -79 35.5 -147.5t98.5 -111.5q-104 -46 -174 -137
q-69 -92 -86 -208q-3 -4 -4 -8.5t-1 -9.5v-4q0 -18 13.5 -31.5t31.5 -13.5q6 0 11.5 2t10.5 4.5t9 7t6.5 9t4 10.5t1.5 12h1q16 130 112 219q101 94 225 94h25q123 0 224 -94q97 -90 113 -219h1q0 -19 12.5 -32t30.5 -13q9 0 17.5 3.5t14.5 9.5t9.5 14.5t3.5 17.5zM525 342
h-31q-81 0 -145 70q-59 65 -59 154q0 94 63 158q65 66 156 66q90 0 156 -66q21 -22 35.5 -47t21.5 -52.5t7 -58.5q0 -89 -59 -154q-64 -70 -145 -70v0zM525 342z" />
    <glyph glyph-name="uniD624" unicode="&#xd624;" 
d="M152 414q-63 66 -63 149t63 150q114 118 259 -34l97 -99l97 99q145 152 258 34q59 -62 62.5 -139t-47.5 -141h80q21 36 30.5 78.5t6 84t-20.5 81t-46 69.5q-47 47 -96.5 68.5t-95 17t-86.5 -26t-78 -59.5l-64 -67l-65 67q-37 38 -78 60t-86.5 26.5t-95 -17t-95.5 -69.5
q-47 -48 -62 -115t3 -134t65 -115l414 -433l29 31v99l-29 -30zM152 414zM996 279h-172v167h-114v-167h-172v-115h172v-168h114v168h172v115zM996 279z" />
    <glyph glyph-name="uniD625" unicode="&#xd625;" 
d="M378 879q-133 -36 -228.5 -132t-131 -227t0.5 -264q18 -68 56 -131q3 -6 7.5 -10.5t10 -7.5t11.5 -5t13 -2q20 0 34 14.5t14 34.5q0 12 -6 23h1q-15 25 -27 52.5t-20 56.5q-29 108 -0.5 213.5t106 183t185.5 106.5q81 24 162 10.5t149 -51.5t119 -103t73 -146
q28 -108 -0.5 -213.5t-105.5 -183t-185 -106.5q-87 -22 -169 -9t-153 57v-1q-11 6 -23 6q-20 0 -34 -14t-14 -34q0 -28 24 -42v-1q57 -35 121.5 -53.5t134 -20t138.5 17.5q134 35 229.5 131t130.5 227t-0.5 264.5t-131.5 228.5t-226.5 130.5t-264.5 0.5v0zM591 361
q1 1 12.5 8t17 11t17 13t17.5 18.5t13.5 22t11 28t3.5 32.5q0 60 -40.5 102.5t-90.5 53.5q-108 22 -170 -46q-21 -23 -31.5 -45t-14.5 -48t-4 -67h92v18q0 19 2 32t8 28t20 24.5t35 14.5q49 10 82 -22q16 -14 13.5 -43t-26.5 -46l-52 -35q-40 -26 -40 -73v-107h92v72
q0 32 33 54v0zM512 199q-20 0 -34 -14t-14 -33q0 -10 4 -19t10 -15t15 -10t18.5 -4t18.5 4t15.5 10t10 15t3.5 19q0 6 -1.5 12t-4.5 11.5t-7.5 10t-10 7.5t-11.5 4.5t-12 1.5v0zM512 199z" />
    <glyph glyph-name="uniD626" unicode="&#xd626;" 
d="M811 824h-88v66h-440v-66h-89q-33 0 -58.5 -16.5t-38.5 -41.5t-13 -52v-727q0 -43 30.5 -76.5t79.5 -33.5h617q50 0 80 33.5t30 76.5v727q0 43 -30 76.5t-80 33.5zM327 846h352v-88h-352v88zM414 645h67v67h39v-67h67v-39h-67v-67h-39v67h-67v39zM789 53h-572v44h572v-44
zM789 185h-572v44h572v-44zM789 317h-572v44h572v-44zM789 449h-572v44h572v-44z" />
    <glyph glyph-name="uniD627" unicode="&#xd627;" 
d="M998 -38l-196 195l-2 2l-2 1q103 121 103 280q0 88 -34 168t-92 138t-138 92t-168 34q-70 0 -136 -21.5t-119 -61.5t-93 -93.5t-62 -119t-22 -136.5q0 -54 15 -110q12 19 29 39.5t28 25.5q-3 25 -3 45q0 99 48.5 182.5t132.5 132t182 48.5q59 0 114.5 -18t100 -52
t78.5 -78.5t52 -100t18 -114.5q0 -116 -67 -209.5t-174 -131.5q-10 -43 -32 -81q108 23 191 94q1 0 2 -1.5t1 -2.5l196 -195q6 -7 15 -9.5t18 0t16 9.5q10 10 10 24t-10 25v0zM488 354q-77 77 -186.5 77t-186.5 -77.5t-77 -186.5t77 -186t186 -77q110 0 187 77t77 186
t-77 187zM439 30q-57 -57 -138 -57q-80 0 -137 57q-28 27 -42.5 62.5t-14.5 74.5q0 81 57 138t137 57q26 0 50.5 -6.5t47 -19.5t40.5 -31q57 -57 57 -138q0 -39 -15 -74.5t-42 -62.5zM423 288q-11 10 -25 10t-24 -10l-73 -72l-72 72q-10 10 -24.5 10t-24.5 -10t-10 -24
t10 -25l72 -72l-72 -72q-10 -10 -10 -24.5t10 -24.5q5 -5 11.5 -7.5t13.5 -2.5q14 0 24 10l72 72l73 -72q5 -5 11 -7.5t13 -2.5q14 0 25 10q6 7 8.5 15.5t0 17.5t-8.5 16l-73 72l73 72q6 7 8.5 16t0 18t-8.5 15v0zM423 288z" />
  </font>
</defs>
</svg>
